<?xml version="1.0" standalone="no"?>
<!DOCTYPE svg PUBLIC "-//W3C//DTD SVG 20010904//EN"
 "http://www.w3.org/TR/2001/REC-SVG-20010904/DTD/svg10.dtd">
<svg version="1.0" xmlns="http://www.w3.org/2000/svg"
 width="640.000000pt" height="640.000000pt" viewBox="0 0 640.000000 640.000000"
 preserveAspectRatio="xMidYMid meet">
<metadata>
Created by potrace 1.14, written by Peter Selinger 2001-2017
</metadata>
<g transform="translate(0.000000,640.000000) scale(0.100000,-0.100000)"
fill="#000000" stroke="none">
<path d="M3059 6377 c-125 -42 -213 -110 -282 -215 -72 -111 -91 -174 -91
-312 0 -124 27 -218 90 -312 19 -28 33 -52 32 -53 -2 -1 -61 -40 -133 -86
l-130 -83 -520 -1 c-286 -1 -545 -5 -575 -9 -387 -56 -712 -323 -842 -695 -49
-140 -55 -218 -54 -625 l1 -381 -145 3 c-138 3 -147 2 -180 -20 -19 -13 -44
-41 -55 -63 -19 -39 -20 -59 -19 -800 0 -418 4 -776 7 -796 9 -46 61 -96 112
-106 22 -5 93 -8 158 -7 l117 2 0 -46 c0 -332 9 -875 14 -902 73 -373 309
-664 649 -799 42 -17 86 -32 99 -35 13 -2 55 -11 93 -20 61 -13 282 -15 1790
-15 1864 0 1786 -2 1951 55 358 123 616 428 690 814 5 29 14 562 14 866 l0 82
128 -1 c70 0 141 3 158 7 37 8 88 59 100 101 6 17 9 364 9 801 -1 742 -2 772
-21 804 -39 67 -59 74 -225 80 l-150 5 -2 395 c-3 329 -6 408 -20 475 -10 44
-22 89 -27 100 -5 11 -12 31 -15 45 -13 47 -93 198 -136 256 -163 220 -392
363 -669 415 -46 8 -223 12 -596 13 l-532 1 -68 46 c-38 25 -93 60 -121 79
-56 35 -62 44 -39 57 24 14 94 155 110 223 69 290 -97 579 -380 663 -78 23
-217 20 -295 -6z"/>
</g>
</svg>
